# xmcd
#
# Track frame offsets: 
#        150
#        11933
#        28168
#        54785
#        69660
#        80265
#        95140
#        113463
#        127813
#        140408
#        155428
#        172168
#        195078
#        210940
#        231323
#        245873
#
# Disc length: 3519 seconds
#
# Revision: 1
# Processed by: cddbd v1.5.2PL0 Copyright (c) Steve Scherf et al.
# Submitted via: ExactAudioCopy v1.0b1
#
DISCID=d30dbd10
DTITLE=Zamfir, Gheorghe and Radu, Dinu and Tircolea, Catalin - Stars der P
DTITLE=anflöte
DYEAR=1987
DGENRE=Other
TTITLE0=Zamfir, Gheorghe - Lied der Amsel
TTITLE1=Radu, Dinu - Nocturne
TTITLE2=Radu, Dinu - Aranjuez
TTITLE3=Tircolea, Catalin - Feelings
TTITLE4=Radu, Dinu - Sehnsuchtswalzer
TTITLE5=Zamfir, Gheorghe - Hirtenlied
TTITLE6=Tircolea, Catalin - Romance d'Amour
TTITLE7=Tircolea, Catalin - Träumerei
TTITLE8=Zamfir, Gheorghe - Die Nachtigall
TTITLE9=Tircolea, Catalin - I Have A Dream
TTITLE10=Radu, Dinu - Wiegenlied
TTITLE11=Radu, Dinu - Ave Maria
TTITLE12=Tircolea, Catalin - Home On The Range
TTITLE13=Zamfir, Gheorghe - J'ai deux Fréres à Severin
TTITLE14=Radu, Dinu - Mondaufgang
TTITLE15=Radu, Dinu - Largo
EXTD=
EXTT0=
EXTT1=
EXTT2=
EXTT3=
EXTT4=
EXTT5=
EXTT6=
EXTT7=
EXTT8=
EXTT9=
EXTT10=
EXTT11=
EXTT12=
EXTT13=
EXTT14=
EXTT15=
PLAYORDER=
